<svg xmlns="http://www.w3.org/2000/svg" width="28" height="28" viewBox="0 0 28 28" fill="none">
    <symbol id="metamask" viewBox="0 0 28 28">
        <rect width="28" height="28" fill="white" />
        <path d="M24.0891 3.1199L15.3446 9.61456L16.9617 5.7828L24.0891 3.1199Z"
            fill="#E2761B" stroke="#E2761B" stroke-width="0.0878845" stroke-linecap="round"
            stroke-linejoin="round" />
        <path d="M3.90207 3.1199L12.5763 9.67608L11.0383 5.7828L3.90207 3.1199Z"
            fill="#E4761B" stroke="#E4761B" stroke-width="0.0878845" stroke-linecap="round"
            stroke-linejoin="round" />
        <path
            d="M20.9429 18.1745L18.6139 21.7426L23.597 23.1136L25.0295 18.2536L20.9429 18.1745Z"
            fill="#E4761B" stroke="#E4761B" stroke-width="0.0878845" stroke-linecap="round"
            stroke-linejoin="round" />
        <path
            d="M2.97929 18.2536L4.40301 23.1136L9.38607 21.7426L7.05713 18.1745L2.97929 18.2536Z"
            fill="#E4761B" stroke="#E4761B" stroke-width="0.0878845" stroke-linecap="round"
            stroke-linejoin="round" />
        <path
            d="M9.10483 12.1456L7.71626 14.2461L12.6642 14.4658L12.4884 9.14877L9.10483 12.1456Z"
            fill="#E4761B" stroke="#E4761B" stroke-width="0.0878845" stroke-linecap="round"
            stroke-linejoin="round" />
        <path
            d="M18.8864 12.1456L15.4589 9.08725L15.3446 14.4658L20.2837 14.2461L18.8864 12.1456Z"
            fill="#E4761B" stroke="#E4761B" stroke-width="0.0878845" stroke-linecap="round"
            stroke-linejoin="round" />
        <path d="M9.38606 21.7426L12.3566 20.2925L9.79033 18.2888L9.38606 21.7426Z"
            fill="#E4761B" stroke="#E4761B" stroke-width="0.0878845" stroke-linecap="round"
            stroke-linejoin="round" />
        <path d="M15.6347 20.2925L18.6139 21.7426L18.2009 18.2888L15.6347 20.2925Z"
            fill="#E4761B" stroke="#E4761B" stroke-width="0.0878845" stroke-linecap="round"
            stroke-linejoin="round" />
        <path
            d="M18.6139 21.7426L15.6347 20.2925L15.8719 22.2348L15.8456 23.0521L18.6139 21.7426Z"
            fill="#D7C1B3" stroke="#D7C1B3" stroke-width="0.0878845" stroke-linecap="round"
            stroke-linejoin="round" />
        <path
            d="M9.38606 21.7426L12.1544 23.0521L12.1368 22.2348L12.3566 20.2925L9.38606 21.7426Z"
            fill="#D7C1B3" stroke="#D7C1B3" stroke-width="0.0878845" stroke-linecap="round"
            stroke-linejoin="round" />
        <path d="M12.1984 17.0056L9.72002 16.2762L11.4689 15.4765L12.1984 17.0056Z"
            fill="#233447" stroke="#233447" stroke-width="0.0878845" stroke-linecap="round"
            stroke-linejoin="round" />
        <path d="M15.7928 17.0056L16.5223 15.4765L18.28 16.2762L15.7928 17.0056Z"
            fill="#233447" stroke="#233447" stroke-width="0.0878845" stroke-linecap="round"
            stroke-linejoin="round" />
        <path d="M9.38606 21.7426L9.80791 18.1745L7.05712 18.2536L9.38606 21.7426Z"
            fill="#CD6116" stroke="#CD6116" stroke-width="0.0878845" stroke-linecap="round"
            stroke-linejoin="round" />
        <path d="M18.1921 18.1745L18.6139 21.7426L20.9429 18.2536L18.1921 18.1745Z"
            fill="#CD6116" stroke="#CD6116" stroke-width="0.0878845" stroke-linecap="round"
            stroke-linejoin="round" />
        <path
            d="M20.2837 14.2461L15.3446 14.4658L15.8016 17.0057L16.5311 15.4765L18.2888 16.2762L20.2837 14.2461Z"
            fill="#CD6116" stroke="#CD6116" stroke-width="0.0878845" stroke-linecap="round"
            stroke-linejoin="round" />
        <path
            d="M9.72002 16.2762L11.4777 15.4765L12.1984 17.0057L12.6642 14.4658L7.71626 14.2461L9.72002 16.2762Z"
            fill="#CD6116" stroke="#CD6116" stroke-width="0.0878845" stroke-linecap="round"
            stroke-linejoin="round" />
        <path d="M7.71626 14.2461L9.79033 18.2888L9.72002 16.2762L7.71626 14.2461Z"
            fill="#E4751F" stroke="#E4751F" stroke-width="0.0878845" stroke-linecap="round"
            stroke-linejoin="round" />
        <path d="M18.2888 16.2762L18.2009 18.2888L20.2837 14.2461L18.2888 16.2762Z"
            fill="#E4751F" stroke="#E4751F" stroke-width="0.0878845" stroke-linecap="round"
            stroke-linejoin="round" />
        <path
            d="M12.6642 14.4658L12.1984 17.0057L12.7784 20.0025L12.9102 16.0565L12.6642 14.4658Z"
            fill="#E4751F" stroke="#E4751F" stroke-width="0.0878845" stroke-linecap="round"
            stroke-linejoin="round" />
        <path
            d="M15.3446 14.4658L15.1073 16.0477L15.2128 20.0025L15.8016 17.0057L15.3446 14.4658Z"
            fill="#E4751F" stroke="#E4751F" stroke-width="0.0878845" stroke-linecap="round"
            stroke-linejoin="round" />
        <path
            d="M15.8016 17.0056L15.2128 20.0025L15.6347 20.2925L18.2009 18.2888L18.2888 16.2762L15.8016 17.0056Z"
            fill="#F6851B" stroke="#F6851B" stroke-width="0.0878845" stroke-linecap="round"
            stroke-linejoin="round" />
        <path
            d="M9.72002 16.2762L9.79033 18.2888L12.3566 20.2925L12.7784 20.0025L12.1984 17.0056L9.72002 16.2762Z"
            fill="#F6851B" stroke="#F6851B" stroke-width="0.0878845" stroke-linecap="round"
            stroke-linejoin="round" />
        <path
            d="M15.8456 23.0521L15.8719 22.2348L15.6522 22.0414H12.339L12.1368 22.2348L12.1544 23.0521L9.38606 21.7426L10.3528 22.5336L12.3126 23.8958H15.6786L17.6472 22.5336L18.6139 21.7426L15.8456 23.0521Z"
            fill="#F6851B" stroke="#F6851B" stroke-width="0.0878845" stroke-linecap="round"
            stroke-linejoin="round" />
    </symbol>
</svg>
